# xmcd
#
# Track frame offsets: 
#        150
#        19069
#        28862
#        45758
#        63069
#        82449
#        102322
#        115133
#        133058
#        151479
#
# Disc length: 2272 seconds
#
# Revision: 10
# Processed by: cddbd v1.5.2PL0 Copyright (c) Steve Scherf et al.
# Submitted via: ExactAudioCopy v0.99pb5
#
DISCID=7d08de0a
DTITLE=Jethro Tull - Stand Up (MFSL UDCD 524)
DYEAR=1969
DGENRE=Progressive Rock
TTITLE0=A New Day Yesterday
TTITLE1=Jeffrey Goes to Leicester Square
TTITLE2=Bourée
TTITLE3=Back to the Family
TTITLE4=Look Into the Sun
TTITLE5=Nothing is Easy
TTITLE6=Fat Man
TTITLE7=We Used Tto Know
TTITLE8=Reasons for Waiting
TTITLE9=For a Thousand Mothers
EXTD=Mobile Fidelity Sound Labs (MFSL)
EXTT0=
EXTT1=
EXTT2=
EXTT3=
EXTT4=
EXTT5=
EXTT6=
EXTT7=
EXTT8=
EXTT9=
PLAYORDER=
